<?xml version="1.0" encoding="utf-8"?>
<!-- Generator: Adobe Illustrator 28.2.0, SVG Export Plug-In . SVG Version: 6.00 Build 0)  -->
<svg version="1.1" id="Layer_1" xmlns="http://www.w3.org/2000/svg" xmlns:xlink="http://www.w3.org/1999/xlink" x="0px" y="0px"
	 viewBox="0 0 8 14" style="enable-background:new 0 0 8 14;" xml:space="preserve">
<style type="text/css">
	.st0{opacity:0.3;enable-background:new    ;}
</style>
<path class="st0" d="M1.9,7.1l0.8,0.3c0.2,0.1,0.3,0,0.5-0.1l1.7-1.1c0,0,0.1,0,0.1,0l0,0c0,0,0,0.1,0,0.1L3.7,7.5
	c-0.1,0.1-0.1,0.2,0,0.2l1.3,1c0.2,0.2,0.6,0,0.6-0.3l0.5-2.9c0-0.2-0.2-0.4-0.4-0.3L1.9,6.9C1.9,6.9,1.9,6.9,1.9,7.1L1.9,7.1
	C1.9,7,1.9,7,1.9,7.1L1.9,7.1z"/>
</svg>
