<?xml version="1.0" encoding="UTF-8"?>
<svg id="Layer_1" xmlns="http://www.w3.org/2000/svg" viewBox="0 0 8 14">
  <defs>
    <style>
      .cls-1 {
        isolation: isolate;
        opacity: .3;
      }
    </style>
  </defs>
  <path class="cls-1" d="M5.49,6.01c0,.71,0,1.4,0,2.08,0,.99-.64,1.77-1.61,1.94-.78.14-1.43-.15-1.9-.77-.48-.66-.52-1.39-.1-2.1.39-.68,1.01-1.01,1.8-.96.1,0,.14.03.14.13,0,.28,0,.55,0,.83,0,.12-.04.12-.14.1-.47-.07-.91.24-.99.69-.09.46.21.91.66,1.02.46.11.9-.16,1.04-.62.03-.09.02-.19.02-.28,0-1.3,0-2.61,0-3.91,0-.16.03-.22.21-.22.35-.02.6,0,.75.43.17.48.61.74,1.13.79.11.01.15.04.14.15,0,.33,0,.67,0,1,0,.11-.01.15-.14.12-.36-.06-.68-.21-1.01-.41Z"/>
</svg>