<?xml version="1.0" encoding="UTF-8"?>
<svg id="Layer_1" xmlns="http://www.w3.org/2000/svg" viewBox="0 0 8 14">
  <defs>
    <style>
      .cls-1 {
        opacity: .3;
      }
    </style>
  </defs>
  <g class="cls-1">
    <path d="M6.79,6.64c-.24-1.44-1.61-2.39-3.03-2.12-1.69.32-2.6,2.22-1.79,3.74.03.06.04.11.02.18-.11.41-.22.82-.34,1.24.44-.12.86-.23,1.28-.34.05-.01.09-.02.15,0,.49.25,1.01.34,1.56.26,1.41-.2,2.4-1.57,2.16-2.98ZM4.46,9.19c-.43.04-.84-.04-1.22-.25-.05-.03-.1-.04-.15-.02-.26.05-.53.1-.8.15.05-.26.09-.5.14-.75.02-.08,0-.14-.03-.22-.73-1.3.07-2.94,1.53-3.17,1.2-.19,2.32.66,2.46,1.87.14,1.19-.73,2.27-1.92,2.39Z"/>
    <path d="M5.46,7.69c-.16-.03-.3-.11-.42-.22-.09-.08-.15-.07-.21,0-.05.07-.11.13-.17.2-.08.09-.12.1-.23.04-.3-.15-.56-.37-.74-.66-.13-.21-.14-.21.03-.4.02-.02.04-.04.05-.07.06-.07.05-.15,0-.25-.05-.09-.09-.18-.11-.28-.04-.27-.31-.37-.5-.2-.17.15-.26.34-.26.59,0,.14.05.3.12.45.35.65.82,1.16,1.54,1.4.16.05.33.1.5.06.29-.06.46-.24.5-.52,0-.07.01-.14-.11-.16Z"/>
  </g>
</svg>